<?xml version="1.0" encoding="utf-8"?>
<!-- Generator: Adobe Illustrator 15.0.2, SVG Export Plug-In  -->
<!DOCTYPE svg PUBLIC "-//W3C//DTD SVG 1.1//EN" "http://www.w3.org/Graphics/SVG/1.1/DTD/svg11.dtd" [
	<!ENTITY ns_flows "http://ns.adobe.com/Flows/1.0/">
]>
<svg version="1.1"
	 xmlns="http://www.w3.org/2000/svg" xmlns:xlink="http://www.w3.org/1999/xlink" xmlns:a="http://ns.adobe.com/AdobeSVGViewerExtensions/3.0/"
	 x="0px" y="0px" width="344px" height="95px" viewBox="-0.207 -0.812 344 95" style="enable-background:new -0.207 -0.812 344 95;"
	 xml:space="preserve">
<style type="text/css">
<![CDATA[
	.st0{fill:#474B4F;}
	.st1{fill:#7FB5BD;}
	.st2{fill:#407985;}
]]>
</style>
<defs>
</defs>
<polygon class="st1" points="97.973,69.576 97.973,51.537 40.214,0 0,45.069 9.928,53.927 41.284,18.786 "/>
<polygon class="st2" points="23.288,66.988 43.167,44.709 97.973,93.61 97.973,75.779 42.097,25.923 13.59,57.874 "/>
<path class="st0" d="M114.04,69.822V32.684h7.875v30.635h15.064v6.503H114.04z"/>
<path class="st0" d="M160.26,69.822l-1.499-3.861h-0.204c-1.304,1.643-2.646,2.782-4.026,3.417c-1.38,0.635-3.179,0.953-5.397,0.953
	c-2.727,0-4.873-0.779-6.439-2.337c-1.566-1.558-2.35-3.776-2.35-6.656c0-3.014,1.055-5.237,3.163-6.667
	c2.109-1.431,5.288-2.223,9.539-2.375l4.928-0.153v-1.245c0-2.879-1.473-4.319-4.42-4.319c-2.27,0-4.937,0.686-8.001,2.058
	l-2.566-5.233c3.268-1.71,6.892-2.565,10.872-2.565c3.811,0,6.732,0.83,8.764,2.489c2.032,1.66,3.048,4.183,3.048,7.57v18.925
	H160.26z M157.974,56.663l-2.998,0.102c-2.252,0.068-3.929,0.475-5.029,1.219c-1.102,0.746-1.651,1.88-1.651,3.404
	c0,2.185,1.253,3.277,3.759,3.277c1.795,0,3.23-0.516,4.306-1.55c1.075-1.033,1.613-2.404,1.613-4.115V56.663z"/>
<path class="st0" d="M197.474,69.822h-7.747V53.234c0-2.049-0.365-3.586-1.092-4.61c-0.729-1.025-1.888-1.537-3.48-1.537
	c-2.167,0-3.734,0.724-4.699,2.172c-0.965,1.448-1.448,3.848-1.448,7.201v13.362h-7.748v-28.4h5.918l1.041,3.633h0.433
	c0.864-1.372,2.053-2.409,3.568-3.112c1.515-0.703,3.239-1.054,5.17-1.054c3.302,0,5.809,0.894,7.519,2.68
	c1.71,1.787,2.565,4.365,2.565,7.735V69.822z"/>
<path class="st0" d="M212.652,70.33c-3.336,0-5.957-1.296-7.861-3.887c-1.906-2.591-2.858-6.181-2.858-10.771
	c0-4.657,0.97-8.285,2.908-10.885c1.94-2.599,4.61-3.899,8.014-3.899c3.574,0,6.301,1.389,8.18,4.166h-0.342
	c-0.39-2.117,0.013-4.005,0.013-5.665v-4.916l7.773-4.178v39.526h-5.944l-1.5-3.684h-0.33
	C218.944,68.933,216.259,70.33,212.652,70.33z M215.371,64.157c1.982,0,3.433-0.575,4.356-1.728
	c0.923-1.151,1.427-3.107,1.512-5.867v-0.839c0-3.048-0.471-5.233-1.411-6.554c-0.939-1.321-2.468-1.981-4.584-1.981
	c-1.728,0-3.07,0.733-4.026,2.197c-0.957,1.465-1.435,3.594-1.435,6.389c0,2.794,0.483,4.89,1.448,6.287
	C212.195,63.458,213.576,64.157,215.371,64.157z"/>
<path class="st0" d="M255.201,61.388c0,2.913-1.012,5.131-3.035,6.656c-2.024,1.524-5.051,2.287-9.082,2.287
	c-2.065,0-3.827-0.14-5.283-0.419c-1.458-0.28-2.82-0.69-4.091-1.232v-6.401c1.44,0.677,3.062,1.244,4.865,1.702
	c1.803,0.457,3.391,0.686,4.763,0.686c2.812,0,4.218-0.813,4.218-2.438c0-0.61-0.187-1.105-0.56-1.486s-1.017-0.813-1.931-1.296
	c-0.915-0.482-2.134-1.045-3.658-1.689c-2.185-0.915-3.79-1.761-4.814-2.54c-1.024-0.779-1.77-1.672-2.234-2.68
	c-0.466-1.008-0.698-2.248-0.698-3.722c0-2.523,0.978-4.475,2.933-5.855c1.956-1.38,4.729-2.07,8.32-2.07
	c3.421,0,6.748,0.745,9.983,2.235l-2.337,5.588c-1.422-0.609-2.752-1.108-3.988-1.499c-1.235-0.389-2.498-0.584-3.785-0.584
	c-2.286,0-3.43,0.619-3.43,1.854c0,0.695,0.368,1.296,1.105,1.804c0.737,0.507,2.35,1.261,4.84,2.261
	c2.218,0.897,3.843,1.736,4.877,2.514c1.033,0.779,1.794,1.677,2.286,2.693C254.956,58.771,255.201,59.982,255.201,61.388z"/>
<path class="st0" d="M267.801,69.822h-7.748V30.296h7.748V69.822z"/>
<path class="st0" d="M273.81,34.081c0-2.523,1.404-3.785,4.216-3.785c2.81,0,4.216,1.262,4.216,3.785
	c0,1.202-0.351,2.138-1.054,2.807c-0.703,0.669-1.756,1.003-3.162,1.003C275.214,37.891,273.81,36.621,273.81,34.081z
	 M281.886,69.822h-7.747v-28.4h7.747V69.822z"/>
<path class="st0" d="M297.218,70.33c-3.336,0-5.957-1.296-7.861-3.887c-1.906-2.591-2.858-6.181-2.858-10.771
	c0-4.657,0.97-8.285,2.908-10.885c1.939-2.599,4.61-3.899,8.015-3.899c3.573,0,6.3,1.389,8.18,4.166h-0.343
	c-0.39-2.117,0.013-4.005,0.013-5.665v-9.094l7.772,4.178v35.348H307.1l-1.499-3.684h-0.33
	C303.509,68.933,300.824,70.33,297.218,70.33z M299.937,64.157c1.981,0,3.433-0.575,4.355-1.728
	c0.924-1.151,1.427-3.107,1.512-5.867v-0.839c0-3.048-0.471-5.233-1.41-6.554s-2.468-1.981-4.585-1.981
	c-1.728,0-3.07,0.733-4.026,2.197c-0.957,1.465-1.435,3.594-1.435,6.389c0,2.794,0.482,4.89,1.448,6.287
	C296.761,63.458,298.141,64.157,299.937,64.157z"/>
<path class="st0" d="M332.209,70.33c-4.572,0-8.146-1.262-10.719-3.785c-2.575-2.523-3.861-6.097-3.861-10.72
	c0-4.759,1.189-8.438,3.568-11.038c2.379-2.599,5.669-3.899,9.869-3.899c4.013,0,7.139,1.143,9.373,3.429
	c2.235,2.286,3.354,5.444,3.354,9.475v3.759h-18.315c0.085,2.202,0.736,3.92,1.956,5.157s2.93,1.854,5.132,1.854
	c1.71,0,3.327-0.178,4.852-0.533s3.115-0.922,4.775-1.702v5.995c-1.354,0.677-2.804,1.181-4.344,1.511
	C336.308,70.164,334.428,70.33,332.209,70.33z M331.117,46.4c-1.643,0-2.931,0.521-3.86,1.563c-0.933,1.042-1.466,2.519-1.601,4.433
	h10.871c-0.034-1.914-0.533-3.391-1.498-4.433S332.76,46.4,331.117,46.4z"/>
<path class="st0" d="M120.736,93.364c-1.643,0-2.928-0.519-3.859-1.554c-0.93-1.037-1.395-2.481-1.395-4.335
	c0-1.903,0.482-3.386,1.448-4.446c0.966-1.061,2.287-1.59,3.965-1.59c0.992,0,1.944,0.171,2.854,0.518l-0.286,0.931
	c-0.993-0.331-1.857-0.497-2.59-0.497c-1.409,0-2.478,0.435-3.203,1.306c-0.726,0.869-1.088,2.123-1.088,3.758
	c0,1.551,0.363,2.766,1.088,3.642c0.726,0.878,1.74,1.316,3.045,1.316c1.042,0,2.012-0.187,2.907-0.56v0.973
	C122.889,93.184,121.927,93.364,120.736,93.364z"/>
<path class="st0" d="M152.609,81.439c0.486,0,1.008,0.048,1.564,0.148l-0.201,1.003c-0.479-0.118-0.977-0.178-1.49-0.178
	c-0.98,0-1.784,0.415-2.412,1.246c-0.626,0.832-0.941,1.881-0.941,3.149v6.344h-1.046V81.661h0.888l0.106,2.071h0.074
	c0.472-0.845,0.976-1.438,1.512-1.781C151.199,81.609,151.848,81.439,152.609,81.439z"/>
<path class="st0" d="M182.8,93.364c-1.669,0-2.972-0.515-3.906-1.543c-0.934-1.029-1.401-2.471-1.401-4.325
	c0-1.832,0.451-3.3,1.354-4.402s2.118-1.654,3.647-1.654c1.352,0,2.421,0.472,3.202,1.415c0.783,0.945,1.174,2.228,1.174,3.85v0.845
	h-8.278c0.015,1.579,0.384,2.785,1.105,3.616c0.723,0.832,1.756,1.247,3.103,1.247c0.655,0,1.231-0.046,1.729-0.138
	c0.498-0.091,1.126-0.288,1.887-0.591v0.951c-0.649,0.281-1.247,0.474-1.797,0.576C184.068,93.313,183.462,93.364,182.8,93.364z
	 M182.494,82.368c-1.106,0-1.995,0.365-2.664,1.095c-0.67,0.729-1.062,1.782-1.174,3.157h7.104c0-1.333-0.288-2.374-0.867-3.126
	C184.315,82.745,183.515,82.368,182.494,82.368z"/>
<path class="st0" d="M218.668,93.152l-0.265-1.818h-0.084c-0.579,0.74-1.172,1.264-1.782,1.57s-1.33,0.46-2.161,0.46
	c-1.127,0-2.005-0.29-2.632-0.868c-0.628-0.576-0.94-1.377-0.94-2.399c0-1.12,0.466-1.99,1.401-2.61
	c0.933-0.622,2.284-0.948,4.053-0.984l2.189-0.063v-0.762c0-1.092-0.223-1.916-0.667-2.474c-0.444-0.557-1.159-0.836-2.146-0.836
	c-1.064,0-2.167,0.298-3.308,0.889l-0.392-0.908c1.262-0.594,2.509-0.89,3.742-0.89c1.262,0,2.204,0.329,2.828,0.984
	c0.625,0.655,0.937,1.677,0.937,3.065v7.644H218.668z M214.439,92.412c1.226,0,2.194-0.35,2.902-1.052
	c0.708-0.7,1.062-1.675,1.062-2.922v-1.133l-2.008,0.086c-1.615,0.078-2.764,0.329-3.452,0.755
	c-0.688,0.427-1.031,1.092-1.031,1.994c0,0.718,0.221,1.277,0.66,1.675C213.014,92.214,213.636,92.412,214.439,92.412z"/>
<path class="st0" d="M247.845,92.434c0.663,0,1.24-0.057,1.733-0.168v0.845c-0.507,0.169-1.092,0.254-1.754,0.254
	c-1.015,0-1.763-0.271-2.247-0.814c-0.482-0.542-0.724-1.396-0.724-2.558V82.57h-1.702v-0.613l1.702-0.476l0.528-2.601h0.539v2.78
	h3.374v0.909h-3.374v7.273c0,0.881,0.156,1.533,0.466,1.955C246.696,92.222,247.183,92.434,247.845,92.434z"/>
<path class="st0" d="M273.564,78.468c0-0.676,0.223-1.014,0.667-1.014c0.218,0,0.389,0.087,0.512,0.263
	c0.124,0.177,0.187,0.427,0.187,0.751c0,0.317-0.063,0.567-0.187,0.75c-0.123,0.183-0.294,0.275-0.512,0.275
	C273.787,79.494,273.564,79.152,273.564,78.468z M274.759,93.152h-1.047V81.661h1.047V93.152z"/>
<path class="st0" d="M302.774,93.152l-4.441-11.491h1.078l2.972,7.813c0.395,1.001,0.69,1.874,0.887,2.621h0.064
	c0.289-0.958,0.584-1.839,0.887-2.643l2.971-7.791h1.079l-4.439,11.491H302.774z"/>
<path class="st0" d="M336.485,93.364c-1.669,0-2.972-0.515-3.906-1.543c-0.934-1.029-1.4-2.471-1.4-4.325
	c0-1.832,0.451-3.3,1.354-4.402s2.117-1.654,3.647-1.654c1.353,0,2.42,0.472,3.202,1.415c0.783,0.945,1.174,2.228,1.174,3.85v0.845
	h-8.277c0.015,1.579,0.382,2.785,1.105,3.616c0.721,0.832,1.755,1.247,3.102,1.247c0.656,0,1.23-0.046,1.729-0.138
	c0.498-0.091,1.126-0.288,1.888-0.591v0.951c-0.648,0.281-1.248,0.474-1.798,0.576C337.755,93.313,337.148,93.364,336.485,93.364z
	 M336.18,82.368c-1.107,0-1.995,0.365-2.665,1.095s-1.061,1.782-1.172,3.157h7.103c0-1.333-0.288-2.374-0.866-3.126
	C338.001,82.745,337.201,82.368,336.18,82.368z"/>
</svg>
